<svg width="48" height="49" viewBox="0 0 48 49" fill="none" xmlns="http://www.w3.org/2000/svg">
<path d="M27 44.8823C23.4 44.8823 20.3333 43.6157 17.8 41.0823C15.2667 38.549 14 35.4823 14 31.8823V30.7323C11.1333 30.2657 8.75 28.9237 6.85 26.7063C4.95 24.489 4 21.881 4 18.8823V6.88232H10V4.88232H14V12.8823H10V10.8823H8V18.8823C8 21.0823 8.78333 22.9657 10.35 24.5323C11.9167 26.099 13.8 26.8823 16 26.8823C18.2 26.8823 20.0833 26.099 21.65 24.5323C23.2167 22.9657 24 21.0823 24 18.8823V10.8823H22V12.8823H18V4.88232H22V6.88232H28V18.8823C28 21.8823 27.05 24.491 25.15 26.7083C23.25 28.9257 20.8667 30.267 18 30.7323V31.8823C18 34.3823 18.8753 36.5077 20.626 38.2583C22.3767 40.009 24.5013 40.8837 27 40.8823C29.4987 40.881 31.624 40.0063 33.376 38.2583C35.128 36.5103 36.0027 34.385 36 31.8823V28.5323C34.8333 28.1323 33.8753 27.4157 33.126 26.3823C32.3767 25.349 32.0013 24.1823 32 22.8823C32 21.2157 32.5833 19.799 33.75 18.6323C34.9167 17.4657 36.3333 16.8823 38 16.8823C39.6667 16.8823 41.0833 17.4657 42.25 18.6323C43.4167 19.799 44 21.2157 44 22.8823C44 24.1823 43.6253 25.349 42.876 26.3823C42.1267 27.4157 41.168 28.1323 40 28.5323V31.8823C40 35.4823 38.7333 38.549 36.2 41.0823C33.6667 43.6157 30.6 44.8823 27 44.8823ZM38 24.8823C38.5667 24.8823 39.042 24.6903 39.426 24.3063C39.81 23.9223 40.0013 23.4477 40 22.8823C39.9987 22.317 39.8067 21.8423 39.424 21.4583C39.0413 21.0743 38.5667 20.8823 38 20.8823C37.4333 20.8823 36.9587 21.0743 36.576 21.4583C36.1933 21.8423 36.0013 22.317 36 22.8823C35.9987 23.4477 36.1907 23.923 36.576 24.3083C36.9613 24.6937 37.436 24.885 38 24.8823Z" fill="#4B8FE2"/>
</svg>
