<svg width="49" height="48" viewBox="0 0 49 48" fill="none" xmlns="http://www.w3.org/2000/svg">
<g clip-path="url(#clip0_1_195)">
<g clip-path="url(#clip1_1_195)">
<path d="M8.66675 42C7.56675 42 6.62541 41.6087 5.84275 40.826C5.06008 40.0433 4.66808 39.1013 4.66675 38V10C4.66675 8.9 5.05875 7.95867 5.84275 7.176C6.62675 6.39333 7.56808 6.00133 8.66675 6H40.6667C41.7667 6 42.7087 6.392 43.4927 7.176C44.2767 7.96 44.6681 8.90133 44.6667 10V38C44.6667 39.1 44.2754 40.042 43.4927 40.826C42.7101 41.61 41.7681 42.0013 40.6667 42H8.66675ZM8.66675 38H40.6667V10H8.66675V38ZM10.6667 34H20.6667V30H10.6667V34ZM29.7667 30L39.6667 20.1L36.8167 17.25L29.7667 24.35L26.9167 21.5L24.1167 24.35L29.7667 30ZM10.6667 26H20.6667V22H10.6667V26ZM10.6667 18H20.6667V14H10.6667V18Z" fill="#4B8FE2"/>
</g>
</g>
<defs>
<clipPath id="clip0_1_195">
<rect width="48" height="48" fill="white" transform="translate(0.666748)"/>
</clipPath>
<clipPath id="clip1_1_195">
<rect width="48" height="48" fill="white" transform="translate(0.666748)"/>
</clipPath>
</defs>
</svg>
