<svg width="48" height="49" viewBox="0 0 48 49" fill="none" xmlns="http://www.w3.org/2000/svg">
<g clip-path="url(#clip0_1_258)">
<path d="M10 40.8823V36.8823H13.2L17.15 23.7323C17.4167 22.8657 17.9087 22.1743 18.626 21.6583C19.3433 21.1423 20.1347 20.8837 21 20.8823H27C27.8667 20.8823 28.6587 21.141 29.376 21.6583C30.0933 22.1757 30.5847 22.867 30.85 23.7323L34.8 36.8823H38V40.8823H10ZM17.4 36.8823H30.6L27 24.8823H21L17.4 36.8823ZM22 16.8823V6.88232H26V16.8823H22ZM33.9 21.8323L31.05 18.9823L38.15 11.9323L40.95 14.7323L33.9 21.8323ZM36 30.8823V26.8823H46V30.8823H36ZM14.1 21.8323L7.05 14.7323L9.85 11.9323L16.95 18.9823L14.1 21.8323ZM2 30.8823V26.8823H12V30.8823H2Z" fill="#4B8FE2"/>
</g>
<defs>
<clipPath id="clip0_1_258">
<rect width="48" height="48" fill="white" transform="translate(0 0.882324)"/>
</clipPath>
</defs>
</svg>
