<svg width="49" height="48" viewBox="0 0 49 48" fill="none" xmlns="http://www.w3.org/2000/svg">
<g clip-path="url(#clip0_1_209)">
<path d="M35.9993 12C34.408 12 32.8818 11.3679 31.7566 10.2426C30.6314 9.11742 29.9993 7.5913 29.9993 6M35.9993 16C34.408 16 32.8818 16.6321 31.7566 17.7574C30.6314 18.8826 29.9993 20.4087 29.9993 22M11.9993 12C13.5906 12 15.1167 11.3679 16.2419 10.2426C17.3671 9.11742 17.9993 7.5913 17.9993 6M11.9993 16C13.5906 16 15.1167 16.6321 16.2419 17.7574C17.3671 18.8826 17.9993 20.4087 17.9993 22M9.99927 40.776H14.5193C16.5393 40.776 18.5853 40.988 20.5513 41.392C24.0615 42.1109 27.6726 42.1908 31.2113 41.628C32.9473 41.348 34.6513 40.918 36.1953 40.174C37.5873 39.5 39.2933 38.554 40.4393 37.492C41.5833 36.432 42.7753 34.698 43.6193 33.342C44.3473 32.178 43.9953 30.752 42.8473 29.886C42.2018 29.4176 41.4248 29.1654 40.6273 29.1654C39.8298 29.1654 39.0527 29.4176 38.4073 29.886L34.7933 32.616C33.3933 33.676 31.8633 34.65 30.0413 34.94C29.8213 34.9747 29.5913 35.006 29.3513 35.034M29.3513 35.034L29.1313 35.058M29.3513 35.034C29.6713 34.9473 29.9648 34.7823 30.2053 34.554C30.5071 34.2936 30.7537 33.9753 30.9303 33.6179C31.1069 33.2605 31.21 32.8712 31.2335 32.4733C31.257 32.0753 31.2004 31.6767 31.0671 31.301C30.9337 30.9253 30.7264 30.5801 30.4573 30.286C30.1966 29.9967 29.8931 29.7491 29.5573 29.552C23.9633 26.214 15.2573 28.756 9.99927 32.486M29.3513 35.034C29.279 35.0501 29.2053 35.0582 29.1313 35.058M29.1313 35.058C27.9251 35.1789 26.71 35.1816 25.5033 35.066M34.8273 20.828C35.9993 19.656 35.9993 17.772 35.9993 14C35.9993 10.228 35.9993 8.344 34.8273 7.172C33.6553 6 31.7713 6 27.9993 6H19.9993C16.2273 6 14.3433 6 13.1713 7.172C11.9993 8.344 11.9993 10.228 11.9993 14C11.9993 17.772 11.9993 19.656 13.1713 20.828C14.3433 22 16.2273 22 19.9993 22H27.9993C31.7713 22 33.6553 22 34.8273 20.828ZM25.9993 14C25.9993 14.5304 25.7886 15.0391 25.4135 15.4142C25.0384 15.7893 24.5297 16 23.9993 16C23.4688 16 22.9601 15.7893 22.5851 15.4142C22.21 15.0391 21.9993 14.5304 21.9993 14C21.9993 13.4696 22.21 12.9609 22.5851 12.5858C22.9601 12.2107 23.4688 12 23.9993 12C24.5297 12 25.0384 12.2107 25.4135 12.5858C25.7886 12.9609 25.9993 13.4696 25.9993 14ZM6.99927 28C8.65612 28 9.99927 29.3431 9.99927 31V41C9.99927 42.6569 8.65612 44 6.99927 44C5.34241 44 3.99927 42.6569 3.99927 41V31C3.99927 29.3431 5.34241 28 6.99927 28Z" stroke="#4B8FE2" stroke-width="3" stroke-linecap="round"/>
</g>
<defs>
<clipPath id="clip0_1_209">
<rect width="48" height="48" fill="white" transform="translate(0.333496)"/>
</clipPath>
</defs>
</svg>
