<svg width="48" height="49" viewBox="0 0 48 49" fill="none" xmlns="http://www.w3.org/2000/svg">
<path d="M18 35.3823H26C27.1 35.3823 28.042 34.991 28.826 34.2083C29.61 33.4257 30.0013 32.4837 30 31.3823V28.8823C30 27.7823 29.6087 26.841 28.826 26.0583C28.0433 25.2757 27.1013 24.8837 26 24.8823H22V22.3823H30V18.3823H18V28.8823H26V31.3823H18V35.3823ZM18 6.88232V2.88232H30V6.88232H18ZM24 44.8823C21.5333 44.8823 19.208 44.4077 17.024 43.4583C14.84 42.509 12.932 41.217 11.3 39.5823C9.668 37.9477 8.37667 36.039 7.426 33.8563C6.47533 31.6737 6 29.349 6 26.8823C6 24.4157 6.47533 22.0903 7.426 19.9063C8.37667 17.7223 9.668 15.8143 11.3 14.1823C12.932 12.5503 14.8407 11.259 17.026 10.3083C19.2113 9.35766 21.536 8.88232 24 8.88232C26.0667 8.88232 28.05 9.21566 29.95 9.88232C31.85 10.549 33.6333 11.5157 35.3 12.7823L38.1 9.98232L40.9 12.7823L38.1 15.5823C39.3667 17.249 40.3333 19.0323 41 20.9323C41.6667 22.8323 42 24.8157 42 26.8823C42 29.349 41.5247 31.6743 40.574 33.8583C39.6233 36.0423 38.332 37.9503 36.7 39.5823C35.068 41.2143 33.1593 42.5063 30.974 43.4583C28.7887 44.4103 26.464 44.885 24 44.8823ZM24 40.8823C27.8667 40.8823 31.1667 39.5157 33.9 36.7823C36.6333 34.049 38 30.749 38 26.8823C38 23.0157 36.6333 19.7157 33.9 16.9823C31.1667 14.249 27.8667 12.8823 24 12.8823C20.1333 12.8823 16.8333 14.249 14.1 16.9823C11.3667 19.7157 10 23.0157 10 26.8823C10 30.749 11.3667 34.049 14.1 36.7823C16.8333 39.5157 20.1333 40.8823 24 40.8823Z" fill="#4B8FE2"/>
</svg>
