<svg width="48" height="41" viewBox="0 0 48 41" fill="none" xmlns="http://www.w3.org/2000/svg">
<g clip-path="url(#clip0_1_397)">
<g filter="url(#filter0_d_1_397)">
<path d="M23.1276 12.9479C21.9931 12.9479 21.0767 12.0299 21.0767 10.8495C21.0767 9.66921 21.9931 8.75118 23.1276 8.75118C24.2622 8.75118 25.1785 9.66921 25.1785 10.8495C25.1785 12.0299 24.2622 12.9479 23.1276 12.9479ZM11.5204 12.9479C10.3858 12.9479 9.46945 12.0299 9.46945 10.8495C9.46945 9.66921 10.3858 8.75118 11.5204 8.75118C12.6549 8.75118 13.5713 9.66921 13.5713 10.8495C13.5713 12.0299 12.6549 12.9479 11.5204 12.9479ZM17.324 0.882324C7.724 0.882324 -0.0869141 7.4397 -0.0869141 15.5271C-0.0869141 19.9424 2.26945 23.9206 5.9349 26.5872C6.24036 26.8058 6.4149 27.1555 6.4149 27.549C6.4149 27.6801 6.37127 27.8113 6.37127 27.9424C6.06581 29.0353 5.62945 30.8277 5.58581 30.9151C5.54218 31.0463 5.49854 31.1774 5.49854 31.3523C5.49854 31.6583 5.76036 31.9206 6.06581 31.9206C6.19672 31.9206 6.28399 31.8769 6.4149 31.8331L10.2113 29.6036C10.5167 29.4288 10.8222 29.3413 11.1276 29.3413C11.3022 29.3413 11.4767 29.3851 11.6513 29.4288C13.4404 29.9534 15.3604 30.2157 17.324 30.2157C17.6294 30.2157 17.9785 30.2157 18.284 30.1719C17.8913 29.0353 17.7167 27.8113 17.7167 26.5872C17.7167 19.1993 24.8294 13.2102 33.6004 13.2102C33.9058 13.2102 33.9931 13.2102 34.2985 13.2539C32.9894 6.21566 26.0076 0.882324 17.324 0.882324Z" fill="#4B8FE2"/>
<path d="M38.3999 24.4889C37.3963 24.4889 36.5672 23.6583 36.5672 22.6528C36.5672 21.6473 37.3963 20.8167 38.3999 20.8167C39.4036 20.8167 40.2327 21.6473 40.2327 22.6528C40.2327 23.6583 39.4036 24.4889 38.3999 24.4889ZM28.7563 24.4889C27.7527 24.4889 26.9236 23.6583 26.9236 22.6528C26.9236 21.6473 27.7527 20.8167 28.7563 20.8167C29.7599 20.8167 30.589 21.6473 30.589 22.6528C30.589 23.6583 29.7599 24.4889 28.7563 24.4889ZM43.069 35.8113C46.1236 33.5818 48.0872 30.2594 48.0872 26.5872C48.0872 19.855 41.5854 14.3905 33.5563 14.3905C25.5272 14.3905 19.0254 19.855 19.0254 26.5872C19.0254 33.3195 25.5272 38.7839 33.5563 38.7839C35.2145 38.7839 36.829 38.5654 38.3127 38.1282C38.4436 38.0845 38.5745 38.0845 38.749 38.0845C39.0108 38.0845 39.2727 38.1719 39.5345 38.3031L42.7199 40.1391C42.8072 40.1829 42.8945 40.2266 42.9818 40.2266C43.2436 40.2266 43.4618 40.008 43.4618 39.7457C43.4618 39.6145 43.4181 39.4834 43.3745 39.396C43.3745 39.3085 42.9818 37.8659 42.7199 36.9479C42.6763 36.8604 42.6763 36.7293 42.6763 36.6419C42.6763 36.2921 42.8508 35.9861 43.069 35.8113Z" fill="#4B8FE2"/>
</g>
</g>
<defs>
<filter id="filter0_d_1_397" x="-4.08691" y="0.882324" width="56.1738" height="47.3442" filterUnits="userSpaceOnUse" color-interpolation-filters="sRGB">
<feFlood flood-opacity="0" result="BackgroundImageFix"/>
<feColorMatrix in="SourceAlpha" type="matrix" values="0 0 0 0 0 0 0 0 0 0 0 0 0 0 0 0 0 0 127 0" result="hardAlpha"/>
<feOffset dy="4"/>
<feGaussianBlur stdDeviation="2"/>
<feComposite in2="hardAlpha" operator="out"/>
<feColorMatrix type="matrix" values="0 0 0 0 0 0 0 0 0 0 0 0 0 0 0 0 0 0 0.25 0"/>
<feBlend mode="normal" in2="BackgroundImageFix" result="effect1_dropShadow_1_397"/>
<feBlend mode="normal" in="SourceGraphic" in2="effect1_dropShadow_1_397" result="shape"/>
</filter>
<clipPath id="clip0_1_397">
<rect width="48" height="39.3443" fill="white" transform="translate(0 0.882324)"/>
</clipPath>
</defs>
</svg>
