<svg width="133" height="133" viewBox="0 0 133 133" fill="none" xmlns="http://www.w3.org/2000/svg">
<g filter="url(#filter0_d_402_358)">
<rect x="4" width="125" height="125" rx="62.5" fill="#0E4963"/>
<path fill-rule="evenodd" clip-rule="evenodd" d="M74.312 28.3724C69.3292 30.5072 62.1378 30.5072 57.155 28.3724C53.1065 26.6379 48.5781 26.4771 44.3997 28.2946C35.582 32.1301 31.6271 43.3387 35.4649 53.4498C35.4658 53.4521 35.4657 53.4546 35.4648 53.4568L36.6624 56.061C40.7109 64.8641 43.7625 74.0923 45.7603 83.5735L47.6608 92.5927C48.3185 95.1855 50.6427 97 53.3059 97C56.1662 97 58.6034 94.9137 59.0575 92.0765L61.7368 75.3363C62.0523 73.3647 63.746 71.9149 65.7336 71.9149C67.7213 71.9149 69.4149 73.3647 69.7304 75.3363L72.4096 92.0765C72.8637 94.9137 75.3009 97 78.1613 97C80.8245 97 83.1486 95.1855 83.8063 92.5927L85.7068 83.5735C87.7047 74.0923 90.7562 64.8641 94.8047 56.061L96.0024 53.4568C96.0014 53.4546 96.0014 53.4521 96.0022 53.4498C99.8401 43.3387 95.8852 32.1301 87.0674 28.2946C82.889 26.4771 78.3605 26.6379 74.312 28.3724Z" fill="url(#paint0_linear_402_358)"/>
</g>
<defs>
<filter id="filter0_d_402_358" x="0" y="0" width="133" height="133" filterUnits="userSpaceOnUse" color-interpolation-filters="sRGB">
<feFlood flood-opacity="0" result="BackgroundImageFix"/>
<feColorMatrix in="SourceAlpha" type="matrix" values="0 0 0 0 0 0 0 0 0 0 0 0 0 0 0 0 0 0 127 0" result="hardAlpha"/>
<feOffset dy="4"/>
<feGaussianBlur stdDeviation="2"/>
<feComposite in2="hardAlpha" operator="out"/>
<feColorMatrix type="matrix" values="0 0 0 0 0 0 0 0 0 0 0 0 0 0 0 0 0 0 0.25 0"/>
<feBlend mode="normal" in2="BackgroundImageFix" result="effect1_dropShadow_402_358"/>
<feBlend mode="normal" in="SourceGraphic" in2="effect1_dropShadow_402_358" result="shape"/>
</filter>
<linearGradient id="paint0_linear_402_358" x1="42.4002" y1="27" x2="80.6669" y2="94.2" gradientUnits="userSpaceOnUse">
<stop stop-color="#F0F6F9"/>
<stop offset="1" stop-color="#CDDFF2"/>
</linearGradient>
</defs>
</svg>
