<svg width="133" height="133" viewBox="0 0 133 133" fill="none" xmlns="http://www.w3.org/2000/svg">
<g filter="url(#filter0_d_402_359)">
<rect x="4" width="125" height="125" rx="62.5" fill="#0E4963"/>
<rect x="53" y="64" width="3" height="10" fill="url(#paint0_linear_402_359)"/>
<circle cx="54.5" cy="45.5" r="19.5" fill="url(#paint1_linear_402_359)"/>
<circle cx="54.5" cy="45.5" r="16.5" fill="url(#paint2_linear_402_359)"/>
<ellipse opacity="0.55" cx="58.6651" cy="51.9675" rx="11.0945" ry="7.97794" transform="rotate(-35.8938 58.6651 51.9675)" fill="url(#paint3_linear_402_359)"/>
<g opacity="0.3" filter="url(#filter1_f_402_359)">
<ellipse cx="47.5108" cy="39.5108" rx="11.1852" ry="6.50778" transform="rotate(135 47.5108 39.5108)" fill="url(#paint4_linear_402_359)"/>
</g>
<g filter="url(#filter2_f_402_359)">
<path d="M46.4802 31.1289L46.2746 30.148C46.1617 29.6095 45.6869 29.2239 45.1367 29.2239C44.571 29.2239 44.0875 29.631 43.991 30.1883L43.8724 30.874C43.381 33.7135 41.1913 35.9569 38.3645 36.5168L36.8631 36.8142C36.3528 36.9152 35.9851 37.3629 35.9851 37.8831C35.9851 38.4196 36.3756 38.8763 36.9056 38.9596L38.0689 39.1424C41.0465 39.6103 43.3891 41.9339 43.8813 44.9077L43.9982 45.6142C44.0903 46.1708 44.5717 46.5791 45.1359 46.5791C45.6854 46.5791 46.1586 46.1914 46.2666 45.6526L46.5222 44.3778C47.059 41.7001 49.2003 39.6361 51.8959 39.1981L53.3334 38.9645C53.8639 38.8783 54.2537 38.42 54.2537 37.8825C54.2537 37.3619 53.8875 36.9131 53.3775 36.8086L51.8774 36.5014C49.1682 35.9466 47.0474 33.8355 46.4802 31.1289Z" fill="url(#paint5_linear_402_359)"/>
</g>
<path d="M46.0671 33.0866L45.6328 29.6698C45.6004 29.4149 45.3836 29.2239 45.1266 29.2239C44.8636 29.2239 44.6436 29.4239 44.6187 29.6858L44.2959 33.0789C44.1059 35.0755 42.5483 36.669 40.5565 36.9044L36.4305 37.3921C36.1764 37.4222 35.9851 37.6375 35.9851 37.8933C35.9851 38.156 36.1866 38.3747 36.4485 38.3962L40.3402 38.7152C42.4389 38.8873 44.1103 40.5429 44.3022 42.6399L44.6204 46.1173C44.6444 46.3789 44.8637 46.5791 45.1264 46.5791C45.3831 46.5791 45.5995 46.3875 45.6307 46.1327L46.0584 42.6345C46.3164 40.5245 48.0187 38.8847 50.1369 38.7058L53.7902 38.3973C54.0523 38.3752 54.2537 38.156 54.2537 37.893C54.2537 37.6371 54.0628 37.4215 53.8088 37.3906L49.9177 36.9169C47.9087 36.6723 46.3224 35.0943 46.0671 33.0866Z" fill="url(#paint6_linear_402_359)"/>
<path d="M82 62.9626C82 60.3718 82.7189 57.8318 84.0768 55.6253L91.9399 42.8477C93.191 40.8146 93.1179 38.2333 91.7538 36.2743L87.5992 30.3082C87.4782 30.1345 87.5117 29.8967 87.6761 29.7632C87.8533 29.6192 88.1145 29.6503 88.2529 29.832L93.5747 36.8168C95.0432 38.7443 95.2082 41.3658 93.993 43.4622L86.8879 55.7188C85.6513 57.8522 85 60.2742 85 62.7401V74H82V62.9626Z" fill="url(#paint7_linear_402_359)"/>
<path d="M82 62.9626C82 60.3718 82.7189 57.8318 84.0768 55.6253L91.9399 42.8477C93.191 40.8146 93.1179 38.2333 91.7538 36.2743L87.5992 30.3082C87.4782 30.1345 87.5117 29.8967 87.6761 29.7632C87.8533 29.6192 88.1145 29.6503 88.2529 29.832L93.5747 36.8168C95.0432 38.7443 95.2082 41.3658 93.993 43.4622L86.8879 55.7188C85.6513 57.8522 85 60.2742 85 62.7401V74H82V62.9626Z" fill="url(#paint8_linear_402_359)" fill-opacity="0.2"/>
<path d="M80.144 72.9148C80.1882 72.3975 80.6211 72 81.1404 72H85.8596C86.3789 72 86.8117 72.3975 86.8559 72.9148L88.5316 92.52C88.7836 95.4679 86.4587 98 83.5 98C80.5413 98 78.2164 95.4679 78.4684 92.52L80.144 72.9148Z" fill="url(#paint9_linear_402_359)"/>
<path d="M80.144 72.9148C80.1882 72.3975 80.6211 72 81.1404 72H85.8596C86.3789 72 86.8117 72.3975 86.8559 72.9148L88.5316 92.52C88.7836 95.4679 86.4587 98 83.5 98C80.5413 98 78.2164 95.4679 78.4684 92.52L80.144 72.9148Z" fill="url(#paint10_linear_402_359)" fill-opacity="0.6"/>
<path d="M80.144 72.9148C80.1882 72.3975 80.6211 72 81.1404 72H85.8596C86.3789 72 86.8117 72.3975 86.8559 72.9148L88.5316 92.52C88.7836 95.4679 86.4587 98 83.5 98C80.5413 98 78.2164 95.4679 78.4684 92.52L80.144 72.9148Z" fill="url(#paint11_linear_402_359)" fill-opacity="0.5"/>
<path d="M51.144 72.9148C51.1882 72.3975 51.6211 72 52.1404 72H56.8596C57.3789 72 57.8117 72.3975 57.8559 72.9148L59.5316 92.52C59.7836 95.4679 57.4587 98 54.5 98C51.5413 98 49.2164 95.4679 49.4684 92.52L51.144 72.9148Z" fill="url(#paint12_linear_402_359)"/>
<path d="M51.144 72.9148C51.1882 72.3975 51.6211 72 52.1404 72H56.8596C57.3789 72 57.8117 72.3975 57.8559 72.9148L59.5316 92.52C59.7836 95.4679 57.4587 98 54.5 98C51.5413 98 49.2164 95.4679 49.4684 92.52L51.144 72.9148Z" fill="url(#paint13_linear_402_359)" fill-opacity="0.6"/>
<path d="M51.144 72.9148C51.1882 72.3975 51.6211 72 52.1404 72H56.8596C57.3789 72 57.8117 72.3975 57.8559 72.9148L59.5316 92.52C59.7836 95.4679 57.4587 98 54.5 98C51.5413 98 49.2164 95.4679 49.4684 92.52L51.144 72.9148Z" fill="url(#paint14_linear_402_359)" fill-opacity="0.5"/>
</g>
<defs>
<filter id="filter0_d_402_359" x="0" y="0" width="133" height="133" filterUnits="userSpaceOnUse" color-interpolation-filters="sRGB">
<feFlood flood-opacity="0" result="BackgroundImageFix"/>
<feColorMatrix in="SourceAlpha" type="matrix" values="0 0 0 0 0 0 0 0 0 0 0 0 0 0 0 0 0 0 127 0" result="hardAlpha"/>
<feOffset dy="4"/>
<feGaussianBlur stdDeviation="2"/>
<feComposite in2="hardAlpha" operator="out"/>
<feColorMatrix type="matrix" values="0 0 0 0 0 0 0 0 0 0 0 0 0 0 0 0 0 0 0.25 0"/>
<feBlend mode="normal" in2="BackgroundImageFix" result="effect1_dropShadow_402_359"/>
<feBlend mode="normal" in="SourceGraphic" in2="effect1_dropShadow_402_359" result="shape"/>
</filter>
<filter id="filter1_f_402_359" x="34.3589" y="26.3589" width="26.3038" height="26.3038" filterUnits="userSpaceOnUse" color-interpolation-filters="sRGB">
<feFlood flood-opacity="0" result="BackgroundImageFix"/>
<feBlend mode="normal" in="SourceGraphic" in2="BackgroundImageFix" result="shape"/>
<feGaussianBlur stdDeviation="2" result="effect1_foregroundBlur_402_359"/>
</filter>
<filter id="filter2_f_402_359" x="31.985" y="25.2239" width="26.2687" height="25.3552" filterUnits="userSpaceOnUse" color-interpolation-filters="sRGB">
<feFlood flood-opacity="0" result="BackgroundImageFix"/>
<feBlend mode="normal" in="SourceGraphic" in2="BackgroundImageFix" result="shape"/>
<feGaussianBlur stdDeviation="2" result="effect1_foregroundBlur_402_359"/>
</filter>
<linearGradient id="paint0_linear_402_359" x1="55.5" y1="64.4167" x2="53.2811" y2="69.7421" gradientUnits="userSpaceOnUse">
<stop stop-color="#B9BED9"/>
<stop offset="1" stop-color="#D3D7E8"/>
</linearGradient>
<linearGradient id="paint1_linear_402_359" x1="54.5" y1="26" x2="54.5" y2="65" gradientUnits="userSpaceOnUse">
<stop stop-color="#E9ECF7"/>
<stop offset="1" stop-color="#CDD1E4"/>
</linearGradient>
<linearGradient id="paint2_linear_402_359" x1="54.5" y1="29" x2="54.5" y2="62" gradientUnits="userSpaceOnUse">
<stop stop-color="white"/>
<stop offset="1" stop-color="#E4E6ED"/>
</linearGradient>
<linearGradient id="paint3_linear_402_359" x1="58.0937" y1="40.4401" x2="58.2869" y2="65.9957" gradientUnits="userSpaceOnUse">
<stop stop-color="white" stop-opacity="0"/>
<stop offset="1" stop-color="white"/>
</linearGradient>
<linearGradient id="paint4_linear_402_359" x1="43.5295" y1="36.8765" x2="43.8592" y2="50.2501" gradientUnits="userSpaceOnUse">
<stop stop-color="white" stop-opacity="0"/>
<stop offset="1" stop-color="white"/>
</linearGradient>
<linearGradient id="paint5_linear_402_359" x1="45.1194" y1="29.2239" x2="45.1194" y2="46.5791" gradientUnits="userSpaceOnUse">
<stop stop-color="white"/>
<stop offset="1" stop-color="white"/>
</linearGradient>
<linearGradient id="paint6_linear_402_359" x1="45.1194" y1="29.2239" x2="45.1194" y2="46.5791" gradientUnits="userSpaceOnUse">
<stop stop-color="white"/>
<stop offset="1" stop-color="white"/>
</linearGradient>
<linearGradient id="paint7_linear_402_359" x1="93.3077" y1="77.7561" x2="82.0737" y2="34.2737" gradientUnits="userSpaceOnUse">
<stop stop-color="#B9BED9"/>
<stop offset="1" stop-color="#D3D7E8"/>
</linearGradient>
<linearGradient id="paint8_linear_402_359" x1="83.0769" y1="55.7561" x2="84.6888" y2="56.8345" gradientUnits="userSpaceOnUse">
<stop stop-color="white"/>
<stop offset="1" stop-color="white" stop-opacity="0"/>
</linearGradient>
<linearGradient id="paint9_linear_402_359" x1="78" y1="85.619" x2="88.006" y2="86.1179" gradientUnits="userSpaceOnUse">
<stop stop-color="#C7C0FA"/>
<stop offset="0.3125" stop-color="#D6D0FB"/>
<stop offset="1" stop-color="#8574F1"/>
</linearGradient>
<linearGradient id="paint10_linear_402_359" x1="83" y1="97" x2="83" y2="85" gradientUnits="userSpaceOnUse">
<stop stop-color="#9080F3"/>
<stop offset="0.648933" stop-color="#9080F3" stop-opacity="0"/>
</linearGradient>
<linearGradient id="paint11_linear_402_359" x1="83.5" y1="72" x2="83.5" y2="73.5" gradientUnits="userSpaceOnUse">
<stop stop-color="white"/>
<stop offset="1" stop-color="white" stop-opacity="0"/>
</linearGradient>
<linearGradient id="paint12_linear_402_359" x1="49" y1="85.619" x2="59.006" y2="86.1179" gradientUnits="userSpaceOnUse">
<stop stop-color="#C7C0FA"/>
<stop offset="0.3125" stop-color="#D6D0FB"/>
<stop offset="1" stop-color="#8574F1"/>
</linearGradient>
<linearGradient id="paint13_linear_402_359" x1="54" y1="97" x2="54" y2="85" gradientUnits="userSpaceOnUse">
<stop stop-color="#9080F3"/>
<stop offset="0.648933" stop-color="#9080F3" stop-opacity="0"/>
</linearGradient>
<linearGradient id="paint14_linear_402_359" x1="54.5" y1="72" x2="54.5" y2="73.5" gradientUnits="userSpaceOnUse">
<stop stop-color="white"/>
<stop offset="1" stop-color="white" stop-opacity="0"/>
</linearGradient>
</defs>
</svg>
