<svg width="133" height="133" viewBox="0 0 133 133" fill="none" xmlns="http://www.w3.org/2000/svg">
<g filter="url(#filter0_d_402_268)">
<rect x="4" width="125" height="125" rx="62.5" fill="#0E4963"/>
<path fill-rule="evenodd" clip-rule="evenodd" d="M76.312 28.3724C71.3292 30.5072 64.1378 30.5072 59.155 28.3724C55.1065 26.6379 50.5781 26.4771 46.3997 28.2946C37.582 32.1301 33.6271 43.3387 37.4649 53.4498C37.4657 53.4521 37.4657 53.4546 37.4648 53.4568L38.6624 56.061C42.7109 64.8641 45.7625 74.0923 47.7603 83.5735L49.6608 92.5927C50.3185 95.1855 52.6426 97 55.3059 97C58.1662 97 60.6034 94.9137 61.0575 92.0765L63.7368 75.3363C64.0523 73.3647 65.7459 71.9149 67.7336 71.9149C69.7213 71.9149 71.4149 73.3647 71.7304 75.3363L74.4096 92.0765C74.8637 94.9137 77.3009 97 80.1612 97C82.8245 97 85.1486 95.1855 85.8063 92.5927L87.7068 83.5735C89.7046 74.0923 92.7562 64.8641 96.8047 56.061L98.0024 53.4568C98.0014 53.4546 98.0014 53.4521 98.0022 53.4498C101.84 43.3387 97.8851 32.1301 89.0674 28.2946C84.889 26.4771 80.3605 26.6379 76.312 28.3724Z" fill="url(#paint0_linear_402_268)"/>
<path d="M48.2491 35.4022L47.7765 33.1475C47.6364 32.4789 47.0467 32 46.3635 32C45.6612 32 45.0607 32.5055 44.941 33.1975L44.6009 35.1629C44.107 38.0176 41.9054 40.2731 39.0634 40.836L36.0902 41.4249C35.4566 41.5504 35 42.1062 35 42.7522C35 43.4183 35.4849 43.9854 36.143 44.0888L38.7871 44.5044C41.7683 44.9729 44.1137 47.2992 44.6064 50.2765L44.9499 52.3519C45.0643 53.0431 45.662 53.55 46.3626 53.55C47.045 53.55 47.6325 53.0685 47.7667 52.3995L48.2387 50.0447C48.8122 47.1841 51.0997 44.9792 53.9794 44.5112L56.5414 44.0949C57.2002 43.9879 57.6842 43.4189 57.6842 42.7514C57.6842 42.1049 57.2295 41.5477 56.5962 41.418L53.6958 40.824C50.9618 40.2641 48.8215 38.1337 48.2491 35.4022Z" fill="url(#paint1_linear_402_268)"/>
<path d="M47.5189 36.7963L46.9796 32.5536C46.9394 32.2372 46.6701 32 46.3511 32C46.0245 32 45.7514 32.2483 45.7204 32.5735L45.3195 36.7867C45.0836 39.266 43.1496 41.2446 40.6764 41.5369L35.553 42.1425C35.2376 42.1798 35 42.4472 35 42.7648C35 43.091 35.2503 43.3626 35.5754 43.3893L40.4077 43.7854C43.0137 43.9991 45.0891 46.0549 45.3274 48.6587L45.7225 52.9766C45.7522 53.3014 46.0246 53.55 46.3508 53.55C46.6696 53.55 46.9383 53.3121 46.977 52.9957L47.508 48.652C47.8284 46.032 49.9422 43.9958 52.5723 43.7738L57.1086 43.3907C57.4341 43.3632 57.6842 43.0911 57.6842 42.7645C57.6842 42.4468 57.4471 42.179 57.1317 42.1406L52.3002 41.5524C49.8055 41.2487 47.8358 39.2894 47.5189 36.7963Z" fill="url(#paint2_linear_402_268)"/>
<path d="M87.2993 64.4873L87.1388 63.7215C87.0506 63.3011 86.6799 63 86.2503 63C85.8087 63 85.4312 63.3178 85.3559 63.753L85.2632 64.2883C84.8796 66.5053 83.17 68.2568 80.963 68.6939L79.7908 68.9261C79.3923 69.005 79.1053 69.3545 79.1053 69.7606C79.1053 70.1795 79.4102 70.5361 79.824 70.6011L80.7322 70.7438C83.057 71.1092 84.8859 72.9233 85.2702 75.245L85.3615 75.7966C85.4334 76.2313 85.8092 76.55 86.2498 76.55C86.6788 76.55 87.0482 76.2473 87.1326 75.8266L87.3321 74.8313C87.7512 72.7407 89.423 71.1293 91.5276 70.7873L92.6499 70.6049C93.0641 70.5376 93.3684 70.1798 93.3684 69.7602C93.3684 69.3537 93.0825 69.0033 92.6843 68.9217L91.5131 68.6819C89.3979 68.2487 87.7422 66.6005 87.2993 64.4873Z" fill="url(#paint3_linear_402_268)"/>
<path d="M86.9768 66.0158L86.6377 63.3481C86.6124 63.1491 86.4431 63 86.2425 63C86.0371 63 85.8654 63.1562 85.846 63.3606L85.5939 66.0098C85.4455 67.5686 84.2295 68.8127 82.6744 68.9965L79.453 69.3773C79.2547 69.4008 79.1053 69.5689 79.1053 69.7686C79.1053 69.9737 79.2626 70.1445 79.4671 70.1612L82.5055 70.4103C84.1441 70.5447 85.449 71.8373 85.5988 73.4745L85.8473 76.1895C85.866 76.3937 86.0372 76.55 86.2423 76.55C86.4428 76.55 86.6117 76.4004 86.636 76.2015L86.97 73.4703C87.1714 71.8229 88.5005 70.5426 90.1542 70.403L93.0065 70.1621C93.2111 70.1449 93.3684 69.9737 93.3684 69.7684C93.3684 69.5686 93.2193 69.4003 93.021 69.3761L89.9831 69.0063C88.4146 68.8153 87.1761 67.5833 86.9768 66.0158Z" fill="url(#paint4_linear_402_268)"/>
</g>
<defs>
<filter id="filter0_d_402_268" x="0" y="0" width="133" height="133" filterUnits="userSpaceOnUse" color-interpolation-filters="sRGB">
<feFlood flood-opacity="0" result="BackgroundImageFix"/>
<feColorMatrix in="SourceAlpha" type="matrix" values="0 0 0 0 0 0 0 0 0 0 0 0 0 0 0 0 0 0 127 0" result="hardAlpha"/>
<feOffset dy="4"/>
<feGaussianBlur stdDeviation="2"/>
<feComposite in2="hardAlpha" operator="out"/>
<feColorMatrix type="matrix" values="0 0 0 0 0 0 0 0 0 0 0 0 0 0 0 0 0 0 0.25 0"/>
<feBlend mode="normal" in2="BackgroundImageFix" result="effect1_dropShadow_402_268"/>
<feBlend mode="normal" in="SourceGraphic" in2="effect1_dropShadow_402_268" result="shape"/>
</filter>
<linearGradient id="paint0_linear_402_268" x1="43.5324" y1="27" x2="81.4915" y2="94.7105" gradientUnits="userSpaceOnUse">
<stop stop-color="#F0F6F9"/>
<stop offset="1" stop-color="#CDDFF2"/>
</linearGradient>
<linearGradient id="paint1_linear_402_268" x1="86.2369" y1="63" x2="86.2369" y2="76.55" gradientUnits="userSpaceOnUse">
<stop stop-color="white"/>
<stop offset="1" stop-color="white"/>
</linearGradient>
<linearGradient id="paint2_linear_402_268" x1="86.2369" y1="63" x2="86.2369" y2="76.55" gradientUnits="userSpaceOnUse">
<stop stop-color="white"/>
<stop offset="1" stop-color="white"/>
</linearGradient>
<linearGradient id="paint3_linear_402_268" x1="86.2369" y1="63" x2="86.2369" y2="76.55" gradientUnits="userSpaceOnUse">
<stop stop-color="white"/>
<stop offset="1" stop-color="white"/>
</linearGradient>
<linearGradient id="paint4_linear_402_268" x1="86.2369" y1="63" x2="86.2369" y2="76.55" gradientUnits="userSpaceOnUse">
<stop stop-color="white"/>
<stop offset="1" stop-color="white"/>
</linearGradient>
</defs>
</svg>
