<svg width="133" height="133" viewBox="0 0 133 133" fill="none" xmlns="http://www.w3.org/2000/svg">
<g filter="url(#filter0_d_402_340)">
<rect x="4" width="125" height="125" rx="62.5" fill="#0E4963"/>
<path fill-rule="evenodd" clip-rule="evenodd" d="M74.312 28.3724C69.3292 30.5072 62.1378 30.5072 57.155 28.3724C53.1065 26.6379 48.5781 26.4771 44.3997 28.2946C35.582 32.1301 31.627 43.3387 35.4649 53.4498C35.4657 53.4521 35.4657 53.4546 35.4648 53.4568L36.6624 56.061C40.7109 64.8641 43.7625 74.0923 45.7603 83.5735L47.6608 92.5927C48.3185 95.1855 50.6426 97 53.3059 97C56.1662 97 58.6034 94.9137 59.0575 92.0765L61.7368 75.3363C62.0523 73.3647 63.7459 71.9149 65.7336 71.9149C67.7212 71.9149 69.4149 73.3647 69.7304 75.3363L72.4096 92.0765C72.8637 94.9137 75.3009 97 78.1612 97C80.8245 97 83.1486 95.1855 83.8063 92.5927L85.7068 83.5735C87.7046 74.0923 90.7562 64.8641 94.8047 56.061L96.0023 53.4568C96.0014 53.4546 96.0014 53.4521 96.0022 53.4498C99.84 43.3387 95.8851 32.1301 87.0674 28.2946C82.889 26.4771 78.3605 26.6379 74.312 28.3724Z" fill="url(#paint0_linear_402_340)"/>
<path fill-rule="evenodd" clip-rule="evenodd" d="M74.312 28.3724C69.3292 30.5072 62.1378 30.5072 57.155 28.3724C53.1065 26.6379 48.5781 26.4771 44.3997 28.2946C35.582 32.1301 31.627 43.3387 35.4649 53.4498C35.4657 53.4521 35.4657 53.4546 35.4648 53.4568L36.6624 56.061C40.7109 64.8641 43.7625 74.0923 45.7603 83.5735L47.6608 92.5927C48.3185 95.1855 50.6426 97 53.3059 97C56.1662 97 58.6034 94.9137 59.0575 92.0765L61.7368 75.3363C62.0523 73.3647 63.7459 71.9149 65.7336 71.9149C67.7212 71.9149 69.4149 73.3647 69.7304 75.3363L72.4096 92.0765C72.8637 94.9137 75.3009 97 78.1612 97C80.8245 97 83.1486 95.1855 83.8063 92.5927L85.7068 83.5735C87.7046 74.0923 90.7562 64.8641 94.8047 56.061L96.0023 53.4568C96.0014 53.4546 96.0014 53.4521 96.0022 53.4498C99.84 43.3387 95.8851 32.1301 87.0674 28.2946C82.889 26.4771 78.3605 26.6379 74.312 28.3724Z" fill="url(#paint1_linear_402_340)"/>
<path fill-rule="evenodd" clip-rule="evenodd" d="M56.0877 27.9556C56.629 34.9457 59.8345 46.2436 69.9622 54.9504C76.2878 60.3886 84.1769 63.0794 91.3749 64.2436C92.424 61.4796 93.5678 58.7505 94.8047 56.061L96.0023 53.4568C96.0014 53.4546 96.0014 53.4521 96.0022 53.4498C99.84 43.3387 95.8851 32.1301 87.0674 28.2946C82.889 26.4771 78.3605 26.6379 74.312 28.3724C69.3292 30.5072 62.1378 30.5072 57.155 28.3724C56.8027 28.2215 56.4467 28.0825 56.0877 27.9556Z" fill="url(#paint2_linear_402_340)"/>
<path fill-rule="evenodd" clip-rule="evenodd" d="M56.0877 27.9556C56.629 34.9457 59.8345 46.2436 69.9622 54.9504C76.2878 60.3886 84.1769 63.0794 91.3749 64.2436C92.424 61.4796 93.5678 58.7505 94.8047 56.061L96.0023 53.4568C96.0014 53.4546 96.0014 53.4521 96.0022 53.4498C99.84 43.3387 95.8851 32.1301 87.0674 28.2946C82.889 26.4771 78.3605 26.6379 74.312 28.3724C69.3292 30.5072 62.1378 30.5072 57.155 28.3724C56.8027 28.2215 56.4467 28.0825 56.0877 27.9556Z" fill="url(#paint3_linear_402_340)" fill-opacity="0.1"/>
<path fill-rule="evenodd" clip-rule="evenodd" d="M56.0877 27.9556C56.629 34.9457 59.8345 46.2436 69.9622 54.9504C76.2878 60.3886 84.1769 63.0794 91.3749 64.2436C92.424 61.4796 93.5678 58.7505 94.8047 56.061L96.0023 53.4568C96.0014 53.4546 96.0014 53.4521 96.0022 53.4498C99.84 43.3387 95.8851 32.1301 87.0674 28.2946C82.889 26.4771 78.3605 26.6379 74.312 28.3724C69.3292 30.5072 62.1378 30.5072 57.155 28.3724C56.8027 28.2215 56.4467 28.0825 56.0877 27.9556Z" fill="url(#paint4_linear_402_340)" fill-opacity="0.1"/>
<path fill-rule="evenodd" clip-rule="evenodd" d="M56.0877 27.9556C56.629 34.9457 59.8345 46.2436 69.9622 54.9504C76.2878 60.3886 84.1769 63.0794 91.3749 64.2436C92.424 61.4796 93.5678 58.7505 94.8047 56.061L96.0023 53.4568C96.0014 53.4546 96.0014 53.4521 96.0022 53.4498C99.84 43.3387 95.8851 32.1301 87.0674 28.2946C82.889 26.4771 78.3605 26.6379 74.312 28.3724C69.3292 30.5072 62.1378 30.5072 57.155 28.3724C56.8027 28.2215 56.4467 28.0825 56.0877 27.9556Z" fill="url(#paint5_linear_402_340)"/>
<path fill-rule="evenodd" clip-rule="evenodd" d="M56.0877 27.9556C56.629 34.9457 59.8345 46.2436 69.9622 54.9504C76.2878 60.3886 84.1769 63.0794 91.3749 64.2436C92.424 61.4796 93.5678 58.7505 94.8047 56.061L96.0023 53.4568C96.0014 53.4546 96.0014 53.4521 96.0022 53.4498C99.84 43.3387 95.8851 32.1301 87.0674 28.2946C82.889 26.4771 78.3605 26.6379 74.312 28.3724C69.3292 30.5072 62.1378 30.5072 57.155 28.3724C56.8027 28.2215 56.4467 28.0825 56.0877 27.9556Z" fill="url(#paint6_linear_402_340)" fill-opacity="0.1"/>
<path fill-rule="evenodd" clip-rule="evenodd" d="M56.0877 27.9556C56.629 34.9457 59.8345 46.2436 69.9622 54.9504C76.2878 60.3886 84.1769 63.0794 91.3749 64.2436C92.424 61.4796 93.5678 58.7505 94.8047 56.061L96.0023 53.4568C96.0014 53.4546 96.0014 53.4521 96.0022 53.4498C99.84 43.3387 95.8851 32.1301 87.0674 28.2946C82.889 26.4771 78.3605 26.6379 74.312 28.3724C69.3292 30.5072 62.1378 30.5072 57.155 28.3724C56.8027 28.2215 56.4467 28.0825 56.0877 27.9556Z" fill="url(#paint7_linear_402_340)" fill-opacity="0.1"/>
<path d="M58.8027 39.3251C60.891 44.5495 64.3721 50.1447 69.9621 54.9504C73.2743 57.7979 77.0151 59.8921 80.8608 61.4084L85.3993 50.721C88.3101 43.8666 82.1119 36.6442 74.8952 38.4812L70.0856 39.7055C66.7516 40.5541 63.2551 40.5284 59.9339 39.6308L58.8027 39.3251Z" fill="url(#paint8_radial_402_340)"/>
</g>
<defs>
<filter id="filter0_d_402_340" x="0" y="0" width="133" height="133" filterUnits="userSpaceOnUse" color-interpolation-filters="sRGB">
<feFlood flood-opacity="0" result="BackgroundImageFix"/>
<feColorMatrix in="SourceAlpha" type="matrix" values="0 0 0 0 0 0 0 0 0 0 0 0 0 0 0 0 0 0 127 0" result="hardAlpha"/>
<feOffset dy="4"/>
<feGaussianBlur stdDeviation="2"/>
<feComposite in2="hardAlpha" operator="out"/>
<feColorMatrix type="matrix" values="0 0 0 0 0 0 0 0 0 0 0 0 0 0 0 0 0 0 0.25 0"/>
<feBlend mode="normal" in2="BackgroundImageFix" result="effect1_dropShadow_402_340"/>
<feBlend mode="normal" in="SourceGraphic" in2="effect1_dropShadow_402_340" result="shape"/>
</filter>
<linearGradient id="paint0_linear_402_340" x1="42.4002" y1="27" x2="80.6669" y2="94.2" gradientUnits="userSpaceOnUse">
<stop stop-color="#F0F6F9"/>
<stop offset="1" stop-color="#CDDFF2"/>
</linearGradient>
<linearGradient id="paint1_linear_402_340" x1="42.4002" y1="27" x2="80.6669" y2="94.2" gradientUnits="userSpaceOnUse">
<stop stop-color="#F0F6F9"/>
<stop offset="1" stop-color="#CDDFF2"/>
</linearGradient>
<linearGradient id="paint2_linear_402_340" x1="87" y1="25" x2="65" y2="70.5" gradientUnits="userSpaceOnUse">
<stop stop-color="#E0EDF6"/>
<stop offset="1" stop-color="#A5CAE8"/>
</linearGradient>
<linearGradient id="paint3_linear_402_340" x1="55" y1="33.5" x2="61.5" y2="33.5" gradientUnits="userSpaceOnUse">
<stop stop-color="#043A70"/>
<stop offset="1" stop-color="#065099" stop-opacity="0"/>
</linearGradient>
<linearGradient id="paint4_linear_402_340" x1="87.5" y1="66.5" x2="87.5" y2="60" gradientUnits="userSpaceOnUse">
<stop stop-color="#002C57"/>
<stop offset="1" stop-color="#065099" stop-opacity="0"/>
</linearGradient>
<linearGradient id="paint5_linear_402_340" x1="87" y1="25" x2="65" y2="70.5" gradientUnits="userSpaceOnUse">
<stop stop-color="#E0EDF6"/>
<stop offset="1" stop-color="#A5CAE8"/>
</linearGradient>
<linearGradient id="paint6_linear_402_340" x1="55" y1="33.5" x2="61.5" y2="33.5" gradientUnits="userSpaceOnUse">
<stop stop-color="#043A70"/>
<stop offset="1" stop-color="#065099" stop-opacity="0"/>
</linearGradient>
<linearGradient id="paint7_linear_402_340" x1="87.5" y1="66.5" x2="87.5" y2="60" gradientUnits="userSpaceOnUse">
<stop stop-color="#002C57"/>
<stop offset="1" stop-color="#065099" stop-opacity="0"/>
</linearGradient>
<radialGradient id="paint8_radial_402_340" cx="0" cy="0" r="1" gradientUnits="userSpaceOnUse" gradientTransform="translate(69.5 55) rotate(-49.5378) scale(22.3439 24.599)">
<stop stop-color="#F5A2A1"/>
<stop offset="1" stop-color="#D96F6E"/>
</radialGradient>
</defs>
</svg>
