<?xml version="1.0" encoding="UTF-8"?>
<svg width="700pt" height="700pt" version="1.1" viewBox="0 0 700 700" xmlns="http://www.w3.org/2000/svg">
 <path d="m585.36 23.426c2.0547 0.25781 3.9883 0.60938 5.9492 1.3086 6.4414 2.3555 11.598 7.5117 13.953 13.953 0.93359 2.6133 1.2852 5.2266 1.4023 7.9805v373.33c-0.11719 2.7539-0.46875 5.3672-1.4023 7.9805-2.3555 6.4414-7.5117 11.598-13.953 13.953-2.6133 0.93359-5.2266 1.2812-7.9805 1.3984h-179.59l-134.12 89.414-1.7266 1.0508c-3.0586 1.5156-6.1602 2.5664-9.5898 2.8242-9.5664 0.65234-18.809-4.8086-22.82-13.535-1.4453-3.125-2.0078-6.3477-2.1484-9.7539v-70h-116.66l-2.0312-0.09375c-2.7305-0.34766-5.3203-0.91016-7.8398-2.0977-6.1836-2.8945-10.898-8.4922-12.672-15.098-0.53516-2.0078-0.69922-3.9883-0.79297-6.043v-373.33c0.11719-2.7539 0.46875-5.3672 1.4023-7.9805 2.3555-6.4414 7.5117-11.598 13.953-13.953 2.6133-0.93359 5.2266-1.2852 7.9805-1.4023 156.24 0 314.04 0.070313 468.7 0.09375zm-445.36 46.574v326.67h116.67c2.7539 0.11719 5.3672 0.46484 7.9805 1.3984 6.4375 2.3555 11.594 7.5117 13.953 13.953 0.93359 2.6133 1.2812 5.2266 1.3984 7.9805v49.723l103.71-69.137 1.6836-1.0273c1.7734-0.88672 3.5234-1.6562 5.457-2.1445 1.9141-0.51562 3.8281-0.65234 5.8125-0.74609h163.33v-326.67zm279.79 69.254c-0.070312-7.9336-0.070312-15.867 0.23438-23.777 0.14062-2.2148 0.53516-4.3867 1.2852-6.4883 2.0273-5.8789 6.4844-10.801 12.133-13.461 2.3789-1.0977 4.8984-1.7734 7.4883-2.0781 1.0039-0.09375 2.0078-0.11719 3.0117-0.11719 2.6133 0.11719 5.1797 0.58594 7.6289 1.4961 6.418 2.4258 11.551 7.6992 13.789 14.16 0.81641 2.2891 1.2148 4.668 1.3086 7.0703 0.09375 7.75 0.23047 15.473 0.25391 23.195 15.844 0.14062 31.688 0.39453 47.531 0.76953 3.4062 0.25781 6.6719 1.0508 9.7305 2.6602 2.6602 1.375 5.0391 3.3125 6.9766 5.6016 1.7031 2.0039 3.0547 4.3164 3.9883 6.7656 0.79297 2.1211 1.2852 4.3398 1.4492 6.6016 0.65234 8.75-3.8516 17.336-11.434 21.793-3.2891 1.9375-6.9062 2.918-10.711 3.1992l-2.125 0.046875c-0.30078 3.4766-0.65234 6.9297-1.0938 10.383-0.49219 4.082-1.0977 8.1406-1.7969 12.18-4.5742 26.902-13.371 53.223-26.109 77.395 6.8359 4.1562 13.93 7.957 21.16 11.316 3.6406 1.6836 7.3281 3.2695 11.062 4.6914 2.0977 0.81641 4.2461 1.5391 6.3711 2.3086 0.95312 0.39844 0.95312 0.39844 1.8867 0.84375 3.6875 1.957 6.8398 4.6641 9.125 8.1875 1.3047 2.0312 2.2852 4.2461 2.918 6.582 2.0039 7.3711 0.18359 15.469-4.8086 21.277-1.5625 1.8203-3.4297 3.4062-5.4844 4.668-4.6875 2.918-10.383 4.0586-15.844 3.1953-2.9375-0.46484-5.7383-1.5625-8.5156-2.5898-11.316-4.1758-22.258-9.3555-32.805-15.234-3.6172-2.0078-7.1875-4.1094-10.734-6.2773-7.375 9.0977-15.469 17.641-24.242 25.48-7.4922 6.6953-15.473 12.762-23.824 18.34-1.1211 0.69922-1.1211 0.67578-2.2656 1.3047-3.1719 1.543-6.5078 2.4961-10.055 2.5898-3.0586 0.070313-6.1133-0.46484-8.9844-1.5625-2.4258-0.93359-4.7109-2.2852-6.7188-3.9648-7.4688-6.3477-10.195-17.012-6.6719-26.18 1.5859-4.1562 4.3164-7.5391 7.7695-10.293 2.4961-1.75 5.0156-3.4062 7.4883-5.1797 5.625-4.1758 11.016-8.6328 16.078-13.484 4.8984-4.6445 9.4727-9.5664 13.789-14.746-11.762-10.246-22.609-21.586-31.805-34.137-3.6172-4.9258-6.9531-10.012-9.9141-15.332-1.8203-3.2422-3.6406-6.4883-4.4336-10.125-1.6328-7.4922 0.58203-15.473 5.8555-21.047 1.6562-1.75 3.5938-3.2227 5.6953-4.3867 3.0547-1.6797 6.3672-2.5664 9.8438-2.8477 1.0273-0.046875 1.0273-0.046875 2.0547-0.046875 1.7266 0.09375 3.4297 0.30469 5.1094 0.72266 5.7852 1.4688 10.594 5.1094 13.883 10.035 1.2617 2.0742 2.3359 4.2461 3.5469 6.3438 6.9062 11.551 15.82 21.75 25.645 30.918 7.1641-14.887 12.531-30.66 16.031-46.758 1.7031-7.8633 2.9844-15.844 3.8477-23.848-31.055 0.23438-62.137-0.023437-93.168-0.76953-3.8047-0.28125-7.4219-1.2617-10.711-3.1992-7.582-4.457-12.086-13.043-11.434-21.793 0.16406-2.2617 0.65234-4.4805 1.4453-6.6016 0.93359-2.4492 2.2891-4.7617 3.9922-6.7656 1.9336-2.2891 4.3164-4.2266 6.9766-5.6016 3.0547-1.6094 6.3242-2.4023 9.7305-2.6602 15.844-0.375 31.707-0.62891 47.574-0.76953zm-163.73 0.76953c0.49219 0 1.0039-0.023438 1.4961 0 0.11719 0 0.23047 0 0.32422 0.023437h0.32812c2.0547 0.1875 4.0352 0.53516 5.9727 1.1914 0.67578 0.23047 1.332 0.48828 1.9844 0.79297 0.27734 0.11719 0.53516 0.23047 0.79297 0.37109 0.83984 0.39844 1.6328 0.86328 2.4023 1.3555 2.1484 1.3984 4.0625 3.125 5.6484 5.1562 1.0039 1.2812 1.8438 2.6602 2.5898 4.1289 24.918 54.18 47.016 109.62 70.512 164.43 1.5156 3.8281 2.2188 7.8398 1.7266 11.949-0.98047 8.2109-6.3945 15.445-13.977 18.688-2.2383 0.95703-4.6445 1.5625-7.0703 1.7969-2.8477 0.25781-5.7383-0.023438-8.4688-0.79297-2.7539-0.76953-5.3438-2.0547-7.6289-3.7578-2.9883-2.2383-5.2266-5.1094-6.9531-8.3984-5.1133-11.082-10.105-22.238-15.004-33.414-22.867 0.32812-45.734 0.32812-68.625 0-4.6875 10.758-9.3789 21.516-14 32.316-1.7266 3.7344-4.1523 7-7.4648 9.4961-1.9609 1.4492-4.1562 2.6133-6.4648 3.4062-7.8164 2.6602-16.66 0.91016-22.891-4.5469-2.1445-1.8672-3.9414-4.1328-5.2734-6.6758-1.3281-2.5195-2.168-5.2734-2.5195-8.1172-0.44141-3.6875 0.09375-7.3047 1.2852-10.805 22.047-55.418 46.945-109.67 70.441-164.48 0.67578-1.4922 1.4258-2.918 2.3789-4.2461 1.4727-2.1016 3.293-3.9453 5.3672-5.4375 0.72266-0.53516 1.5195-1.0508 2.3125-1.4922 0.25391-0.14062 0.51172-0.28125 0.79297-0.42188 0.62891-0.32812 1.2578-0.60547 1.9375-0.86328 1.8867-0.76953 3.8711-1.2148 5.9023-1.5156 0.09375 0 0.21094-0.023437 0.32422-0.023437 0.09375-0.023437 0.21094-0.023437 0.30469-0.046875 0.51562-0.023438 1.0039-0.046875 1.5156-0.070312zm0.79297 83.789c-4.6172 10.828-9.3086 21.629-14.023 32.434 9.2188-0.046875 18.434-0.046875 27.652 0-4.5508-10.805-9.0781-21.629-13.629-32.434z" fill-rule="evenodd"/>
</svg>
