<svg width="273" height="134" viewBox="0 0 273 134" fill="none" xmlns="http://www.w3.org/2000/svg">
<path d="M64.4034 55V18.6364H86.2074V22.5426H68.8068V34.8295H84.5739V38.7358H68.8068V55H64.4034ZM93.7491 55V18.6364H106.036C108.877 18.6364 111.209 19.1217 113.032 20.0923C114.855 21.0511 116.204 22.371 117.08 24.0518C117.956 25.7327 118.394 27.6444 118.394 29.7869C118.394 31.9295 117.956 33.8293 117.08 35.4865C116.204 37.1437 114.861 38.4458 113.05 39.3928C111.238 40.3279 108.924 40.7955 106.107 40.7955H96.1639V36.8182H105.965C107.906 36.8182 109.469 36.5341 110.653 35.9659C111.848 35.3977 112.712 34.5928 113.245 33.5511C113.789 32.4976 114.062 31.2429 114.062 29.7869C114.062 28.331 113.789 27.0585 113.245 25.9695C112.7 24.8804 111.83 24.04 110.635 23.4482C109.439 22.8445 107.859 22.5426 105.894 22.5426H98.1525V55H93.7491ZM110.866 38.6648L119.814 55H114.701L105.894 38.6648H110.866ZM125.732 55V18.6364H147.678V22.5426H130.135V34.8295H146.541V38.7358H130.135V51.0938H147.962V55H125.732ZM184.45 18.6364V55H180.188L160.373 26.4489H160.018V55H155.614V18.6364H159.876L179.762 47.2585H180.117V18.6364H184.45ZM222.522 30H218.119C217.858 28.7334 217.403 27.6207 216.752 26.6619C216.112 25.7031 215.331 24.8982 214.408 24.2472C213.496 23.5843 212.484 23.0871 211.372 22.7557C210.259 22.4242 209.099 22.2585 207.892 22.2585C205.69 22.2585 203.695 22.8149 201.908 23.9276C200.132 25.0402 198.718 26.6797 197.664 28.8459C196.623 31.0121 196.102 33.6695 196.102 36.8182C196.102 39.9669 196.623 42.6243 197.664 44.7905C198.718 46.9567 200.132 48.5961 201.908 49.7088C203.695 50.8215 205.69 51.3778 207.892 51.3778C209.099 51.3778 210.259 51.2121 211.372 50.8807C212.484 50.5492 213.496 50.058 214.408 49.407C215.331 48.7441 216.112 47.9332 216.752 46.9744C217.403 46.0038 217.858 44.8911 218.119 43.6364H222.522C222.191 45.4948 221.587 47.1579 220.711 48.6257C219.835 50.0935 218.746 51.3423 217.444 52.3722C216.142 53.3902 214.68 54.1655 213.058 54.6982C211.449 55.2308 209.726 55.4972 207.892 55.4972C204.79 55.4972 202.032 54.7396 199.617 53.2244C197.203 51.7093 195.303 49.5549 193.918 46.7614C192.533 43.9678 191.84 40.6534 191.84 36.8182C191.84 32.983 192.533 29.6686 193.918 26.875C195.303 24.0814 197.203 21.9271 199.617 20.4119C202.032 18.8968 204.79 18.1392 207.892 18.1392C209.726 18.1392 211.449 18.4055 213.058 18.9382C214.68 19.4709 216.142 20.2521 217.444 21.282C218.746 22.3 219.835 23.5428 220.711 25.0107C221.587 26.4666 222.191 28.1297 222.522 30ZM229.638 55V18.6364H234.041V34.8295H253.43V18.6364H257.834V55H253.43V38.7358H234.041V55H229.638ZM75.625 116H64.4034V79.6364H76.1222C79.6496 79.6364 82.6681 80.3643 85.1776 81.8203C87.687 83.2644 89.6106 85.3419 90.9482 88.0526C92.2857 90.7514 92.9545 93.983 92.9545 97.7472C92.9545 101.535 92.2798 104.796 90.9304 107.531C89.581 110.253 87.616 112.348 85.0355 113.816C82.455 115.272 79.3182 116 75.625 116ZM68.8068 112.094H75.3409C78.3475 112.094 80.8393 111.514 82.8161 110.354C84.7929 109.194 86.2666 107.542 87.2372 105.4C88.2079 103.257 88.6932 100.706 88.6932 97.7472C88.6932 94.8116 88.2138 92.2843 87.255 90.1655C86.2962 88.0348 84.8639 86.4013 82.9581 85.2649C81.0523 84.1167 78.679 83.5426 75.8381 83.5426H68.8068V112.094ZM100.341 116V79.6364H122.287V83.5426H104.744V95.8295H121.151V99.7358H104.744V112.094H122.571V116H100.341ZM159.059 79.6364V116H154.798L134.982 87.4489H134.627V116H130.224V79.6364H134.485L154.371 108.259H154.727V79.6364H159.059ZM165.882 83.5426V79.6364H193.154V83.5426H181.72V116H177.316V83.5426H165.882ZM204.354 79.6364V116H199.95V79.6364H204.354ZM233.069 88.7273C232.856 86.928 231.992 85.5312 230.477 84.5369C228.962 83.5426 227.103 83.0455 224.901 83.0455C223.292 83.0455 221.883 83.3059 220.676 83.8267C219.48 84.3475 218.545 85.0637 217.87 85.9751C217.207 86.8866 216.876 87.9223 216.876 89.0824C216.876 90.053 217.107 90.8875 217.568 91.5859C218.042 92.2725 218.646 92.8466 219.379 93.3082C220.113 93.758 220.883 94.1309 221.688 94.4268C222.493 94.7109 223.232 94.9418 223.907 95.1193L227.6 96.1136C228.547 96.3622 229.601 96.7055 230.761 97.1435C231.933 97.5814 233.051 98.1792 234.117 98.9368C235.194 99.6825 236.082 100.641 236.78 101.813C237.478 102.985 237.828 104.423 237.828 106.128C237.828 108.093 237.313 109.868 236.283 111.455C235.265 113.041 233.773 114.301 231.808 115.237C229.855 116.172 227.482 116.639 224.688 116.639C222.084 116.639 219.829 116.219 217.923 115.379C216.03 114.538 214.538 113.366 213.449 111.863C212.372 110.36 211.762 108.614 211.62 106.625H216.166C216.284 107.998 216.746 109.134 217.551 110.034C218.367 110.922 219.397 111.585 220.64 112.023C221.895 112.449 223.244 112.662 224.688 112.662C226.369 112.662 227.878 112.39 229.216 111.845C230.554 111.289 231.613 110.519 232.394 109.537C233.176 108.543 233.566 107.383 233.566 106.057C233.566 104.849 233.229 103.867 232.554 103.109C231.879 102.352 230.992 101.736 229.891 101.263C228.79 100.789 227.6 100.375 226.322 100.02L221.847 98.7415C219.007 97.9247 216.758 96.7588 215.1 95.2436C213.443 93.7285 212.615 91.7457 212.615 89.2955C212.615 87.2595 213.165 85.4839 214.266 83.9688C215.378 82.4418 216.87 81.258 218.74 80.4176C220.622 79.5653 222.723 79.1392 225.044 79.1392C227.387 79.1392 229.471 79.5594 231.294 80.3999C233.116 81.2285 234.561 82.3648 235.626 83.8089C236.703 85.2531 237.271 86.8925 237.33 88.7273H233.069ZM243.079 83.5426V79.6364H270.352V83.5426H258.917V116H254.513V83.5426H243.079Z" fill="#545454"/>
<path d="M52 2C12.1559 51.8775 35.3983 109.449 52 132" stroke="#C00000" stroke-width="5"/>
<path d="M25 2C-14.8441 51.8775 8.39828 109.449 25 132" stroke="#0011AC" stroke-width="5"/>
</svg>
